<mxfile host="app.diagrams.net" modified="2024-04-09T18:33:08.541Z" agent="Mozilla/5.0 (X11; Linux x86_64; rv:124.0) Gecko/20100101 Firefox/124.0" etag="mJgvQmVlMe_0vk9sVRUM" version="24.0.7" type="device">
  <diagram name="Page-1" id="8hF6lYis6uE0EPDzzxQF">
    <mxGraphModel dx="1371" dy="955" grid="1" gridSize="10" guides="1" tooltips="1" connect="1" arrows="1" fold="1" page="1" pageScale="1" pageWidth="850" pageHeight="650" math="0" shadow="0">
      <root>
        <mxCell id="0" />
        <mxCell id="1" parent="0" />
        <mxCell id="sVKdv_AXMPkkLzGrBa1U-17" value="" style="rounded=0;whiteSpace=wrap;html=1;fillStyle=auto;dashed=1;" parent="1" vertex="1">
          <mxGeometry x="150" y="40" width="490" height="570" as="geometry" />
        </mxCell>
        <mxCell id="sVKdv_AXMPkkLzGrBa1U-1" value="DB" style="shape=cylinder3;whiteSpace=wrap;html=1;boundedLbl=1;backgroundOutline=1;size=15;" parent="1" vertex="1">
          <mxGeometry x="550" y="290" width="60" height="80" as="geometry" />
        </mxCell>
        <mxCell id="sVKdv_AXMPkkLzGrBa1U-2" value="User" style="sketch=0;outlineConnect=0;fontColor=#232F3E;gradientColor=none;fillColor=#232F3D;strokeColor=none;dashed=0;verticalLabelPosition=bottom;verticalAlign=top;align=center;html=1;fontSize=12;fontStyle=0;aspect=fixed;pointerEvents=1;shape=mxgraph.aws4.user;" parent="1" vertex="1">
          <mxGeometry x="30" y="60" width="78" height="78" as="geometry" />
        </mxCell>
        <mxCell id="sVKdv_AXMPkkLzGrBa1U-3" value="&lt;div&gt;WebApp&lt;/div&gt;&lt;div&gt;REST API&lt;br&gt;&lt;/div&gt;" style="rounded=1;whiteSpace=wrap;html=1;" parent="1" vertex="1">
          <mxGeometry x="312" y="69" width="120" height="60" as="geometry" />
        </mxCell>
        <mxCell id="sVKdv_AXMPkkLzGrBa1U-4" value="&lt;div&gt;Analyzer&lt;/div&gt;" style="rounded=1;whiteSpace=wrap;html=1;" parent="1" vertex="1">
          <mxGeometry x="312" y="300" width="120" height="60" as="geometry" />
        </mxCell>
        <mxCell id="sVKdv_AXMPkkLzGrBa1U-5" value="Collector" style="rounded=1;whiteSpace=wrap;html=1;" parent="1" vertex="1">
          <mxGeometry x="312" y="520" width="120" height="60" as="geometry" />
        </mxCell>
        <mxCell id="sVKdv_AXMPkkLzGrBa1U-6" value="&lt;div&gt;Queue&lt;/div&gt;" style="sketch=0;aspect=fixed;pointerEvents=1;shadow=0;dashed=0;html=1;strokeColor=none;labelPosition=center;verticalLabelPosition=bottom;verticalAlign=top;align=center;fillColor=#00188D;shape=mxgraph.azure.queue_generic" parent="1" vertex="1">
          <mxGeometry x="170" y="420" width="142" height="42.6" as="geometry" />
        </mxCell>
        <mxCell id="sVKdv_AXMPkkLzGrBa1U-7" value="" style="endArrow=classic;html=1;rounded=0;exitX=0;exitY=0.5;exitDx=0;exitDy=0;entryX=0.148;entryY=1.056;entryDx=0;entryDy=0;entryPerimeter=0;" parent="1" source="sVKdv_AXMPkkLzGrBa1U-5" target="sVKdv_AXMPkkLzGrBa1U-6" edge="1">
          <mxGeometry width="50" height="50" relative="1" as="geometry">
            <mxPoint x="422" y="430" as="sourcePoint" />
            <mxPoint x="472" y="380" as="targetPoint" />
            <Array as="points">
              <mxPoint x="192" y="550" />
            </Array>
          </mxGeometry>
        </mxCell>
        <mxCell id="sVKdv_AXMPkkLzGrBa1U-8" value="" style="endArrow=classic;html=1;rounded=0;exitX=0.768;exitY=0;exitDx=0;exitDy=0;exitPerimeter=0;entryX=0;entryY=0.5;entryDx=0;entryDy=0;" parent="1" source="sVKdv_AXMPkkLzGrBa1U-6" target="sVKdv_AXMPkkLzGrBa1U-4" edge="1">
          <mxGeometry width="50" height="50" relative="1" as="geometry">
            <mxPoint x="422" y="430" as="sourcePoint" />
            <mxPoint x="472" y="380" as="targetPoint" />
            <Array as="points">
              <mxPoint x="279" y="330" />
            </Array>
          </mxGeometry>
        </mxCell>
        <mxCell id="sVKdv_AXMPkkLzGrBa1U-9" value="" style="endArrow=classic;html=1;rounded=0;entryX=0;entryY=0.5;entryDx=0;entryDy=0;" parent="1" source="sVKdv_AXMPkkLzGrBa1U-2" target="sVKdv_AXMPkkLzGrBa1U-3" edge="1">
          <mxGeometry width="50" height="50" relative="1" as="geometry">
            <mxPoint x="180" y="130" as="sourcePoint" />
            <mxPoint x="230" y="80" as="targetPoint" />
          </mxGeometry>
        </mxCell>
        <mxCell id="sVKdv_AXMPkkLzGrBa1U-10" value="" style="endArrow=classic;html=1;rounded=0;exitX=1;exitY=0.5;exitDx=0;exitDy=0;entryX=0.5;entryY=0;entryDx=0;entryDy=0;entryPerimeter=0;strokeColor=default;endFill=1;startArrow=none;startFill=0;" parent="1" source="sVKdv_AXMPkkLzGrBa1U-3" target="sVKdv_AXMPkkLzGrBa1U-1" edge="1">
          <mxGeometry width="50" height="50" relative="1" as="geometry">
            <mxPoint x="432" y="230" as="sourcePoint" />
            <mxPoint x="482" y="180" as="targetPoint" />
            <Array as="points">
              <mxPoint x="580" y="100" />
            </Array>
          </mxGeometry>
        </mxCell>
        <mxCell id="sVKdv_AXMPkkLzGrBa1U-11" value="" style="endArrow=classic;html=1;rounded=0;exitX=1;exitY=0.5;exitDx=0;exitDy=0;entryX=0;entryY=0.5;entryDx=0;entryDy=0;entryPerimeter=0;startArrow=classic;startFill=1;" parent="1" source="sVKdv_AXMPkkLzGrBa1U-4" target="sVKdv_AXMPkkLzGrBa1U-1" edge="1">
          <mxGeometry width="50" height="50" relative="1" as="geometry">
            <mxPoint x="442" y="330" as="sourcePoint" />
            <mxPoint x="492" y="280" as="targetPoint" />
          </mxGeometry>
        </mxCell>
        <mxCell id="sVKdv_AXMPkkLzGrBa1U-13" value="Scheduler" style="verticalLabelPosition=bottom;html=1;verticalAlign=top;align=center;strokeColor=none;fillColor=#00BEF2;shape=mxgraph.azure.scheduler;pointerEvents=1;" parent="1" vertex="1">
          <mxGeometry x="442" y="525" width="40" height="50" as="geometry" />
        </mxCell>
        <mxCell id="sVKdv_AXMPkkLzGrBa1U-14" value="ArXiv API" style="rounded=0;whiteSpace=wrap;html=1;" parent="1" vertex="1">
          <mxGeometry x="700" y="520" width="120" height="60" as="geometry" />
        </mxCell>
        <mxCell id="sVKdv_AXMPkkLzGrBa1U-15" value="" style="endArrow=classic;html=1;rounded=0;entryX=0;entryY=0.5;entryDx=0;entryDy=0;exitX=0.694;exitY=0.895;exitDx=0;exitDy=0;exitPerimeter=0;" parent="1" source="sVKdv_AXMPkkLzGrBa1U-17" target="sVKdv_AXMPkkLzGrBa1U-14" edge="1">
          <mxGeometry width="50" height="50" relative="1" as="geometry">
            <mxPoint x="500" y="550" as="sourcePoint" />
            <mxPoint x="500" y="500" as="targetPoint" />
          </mxGeometry>
        </mxCell>
        <mxCell id="bTDZQm3vndbICGQ1BgzN-1" value="&lt;div&gt;Object Storage&lt;/div&gt;" style="outlineConnect=0;dashed=0;verticalLabelPosition=bottom;verticalAlign=top;align=center;html=1;shape=mxgraph.aws3.s3;fillColor=#E05243;gradientColor=none;" vertex="1" parent="1">
          <mxGeometry x="342" y="138" width="60" height="73" as="geometry" />
        </mxCell>
        <mxCell id="bTDZQm3vndbICGQ1BgzN-9" value="" style="endArrow=classic;html=1;rounded=0;entryX=0;entryY=0.5;entryDx=0;entryDy=0;entryPerimeter=0;" edge="1" parent="1" target="bTDZQm3vndbICGQ1BgzN-1">
          <mxGeometry width="50" height="50" relative="1" as="geometry">
            <mxPoint x="120" y="120" as="sourcePoint" />
            <mxPoint x="322" y="109" as="targetPoint" />
            <Array as="points">
              <mxPoint x="240" y="120" />
              <mxPoint x="240" y="175" />
            </Array>
          </mxGeometry>
        </mxCell>
        <mxCell id="bTDZQm3vndbICGQ1BgzN-11" value="" style="endArrow=classic;html=1;rounded=0;exitX=0.5;exitY=0;exitDx=0;exitDy=0;entryX=1;entryY=0.5;entryDx=0;entryDy=0;entryPerimeter=0;" edge="1" parent="1" source="sVKdv_AXMPkkLzGrBa1U-4" target="bTDZQm3vndbICGQ1BgzN-1">
          <mxGeometry width="50" height="50" relative="1" as="geometry">
            <mxPoint x="289" y="430" as="sourcePoint" />
            <mxPoint x="322" y="340" as="targetPoint" />
            <Array as="points">
              <mxPoint x="372" y="270" />
              <mxPoint x="450" y="270" />
              <mxPoint x="450" y="175" />
            </Array>
          </mxGeometry>
        </mxCell>
      </root>
    </mxGraphModel>
  </diagram>
</mxfile>
